HIERARCHY
ROOT Hips
{
	OFFSET 0.000000 0.000000 0.000000 
	CHANNELS 6 Xposition Yposition Zposition Zrotation Yrotation Xrotation
	JOINT LeftUpLeg
	{
		OFFSET 1.363060 -1.794630 0.839290 
		CHANNELS 3 Zrotation Yrotation Xrotation
		JOINT LeftLeg
		{
			OFFSET 2.448110 -6.726130 0.000000 
			CHANNELS 3 Zrotation Yrotation Xrotation
			JOINT LeftFoot
			{
				OFFSET 2.562200 -7.039590 0.000000 
				CHANNELS 3 Zrotation Yrotation Xrotation
				JOINT LeftToeBase
				{
					OFFSET 0.157640 -0.433110 2.322550 
					CHANNELS 3 Zrotation Yrotation Xrotation
					End Site
					{
						OFFSET 0.000000 0.000000 0.000000 
					}
				}
			}
		}
	}
	JOINT RightUpLeg
	{
		OFFSET -1.305520 -1.794630 0.839290 
		CHANNELS 3 Zrotation Yrotation Xrotation
		JOINT RightLeg
		{
			OFFSET -2.542530 -6.985550 0.000000 
			CHANNELS 3 Zrotation Yrotation Xrotation
			JOINT RightFoot
			{
				OFFSET -2.568260 -7.056230 0.000000 
				CHANNELS 3 Zrotation Yrotation Xrotation
				JOINT RightToeBase
				{
					OFFSET -0.164730 -0.452590 2.363150 
					CHANNELS 3 Zrotation Yrotation Xrotation
					End Site
					{
						OFFSET 0.000000 0.000000 0.000000 
					}
				}
			}
		}
	}
	JOINT Spine
	{
		OFFSET 0.028270 2.035590 -0.193380 
		CHANNELS 3 Zrotation Yrotation Xrotation
		JOINT Spine1
		{
			OFFSET 0.056720 2.048850 -0.042750 
			CHANNELS 3 Zrotation Yrotation Xrotation
			JOINT Neck1
			{
				OFFSET -0.054170 1.746240 0.172020 
				CHANNELS 3 Zrotation Yrotation Xrotation
				JOINT Head
				{
					OFFSET 0.104070 1.761360 -0.123970 
					CHANNELS 3 Zrotation Yrotation Xrotation
					End Site
					{
						OFFSET 0.000000 0.000000 0.000000 
					}
				}
			}
			JOINT LeftArm
			{
				OFFSET 3.362410 1.200890 -0.311210 
				CHANNELS 3 Zrotation Yrotation Xrotation
				JOINT LeftForeArm
				{
					OFFSET 4.983000 -0.000000 -0.000000 
					CHANNELS 3 Zrotation Yrotation Xrotation
					JOINT LeftHand
					{
						OFFSET 3.483560 -0.000000 -0.000000 
						CHANNELS 3 Zrotation Yrotation Xrotation
						JOINT LeftHandIndex1
						{
							OFFSET 0.715260 -0.000000 -0.000000 
							CHANNELS 3 Zrotation Yrotation Xrotation
							End Site
							{
								OFFSET 0.000000 0.000000 0.000000 
							}
						}
					}
				}
			}
			JOINT RightArm
			{
				OFFSET -3.136600 1.374050 -0.404650 
				CHANNELS 3 Zrotation Yrotation Xrotation
				JOINT RightForeArm
				{
					OFFSET -5.241900 -0.000000 -0.000000 
					CHANNELS 3 Zrotation Yrotation Xrotation
					JOINT RightHand
					{
						OFFSET -3.444170 -0.000000 -0.000000 
						CHANNELS 3 Zrotation Yrotation Xrotation
						JOINT RightHandIndex1
						{
							OFFSET -0.622530 -0.000000 -0.000000 
							CHANNELS 3 Zrotation Yrotation Xrotation
							End Site
							{
								OFFSET 0.000000 0.000000 0.000000 
							}
						}
					}
				}
			}
		}
	}
}
MOTION
Frames: 12
Frame Time: 0.041667
6.643801 17.556143 -8.683222 -1.756335 -17.149492 10.451856 -12.068193 -3.391239 -17.863090 1.249477 10.110615 27.351899 -2.615245 14.203270 -6.554423 0.140200 -2.413600 -6.650200 14.478219 7.471662 -19.194981 -2.596470 -11.780721 32.930132 2.199917 -10.422525 -9.302163 -0.059500 -1.574000 4.329700 2.239104 -0.912039 -3.246655 5.102943 -0.572527 -2.238073 11.395189 -19.673974 3.785271 6.020600 -9.790400 7.256100 -84.450819 -2.790776 61.768329 54.372460 -56.913331 -25.533509 -1.693155 1.601651 -37.861026 -7.125000 0.000000 0.000000 77.418425 4.383801 54.009284 -29.999962 44.061733 -10.313435 -1.147964 -0.745264 -0.084643 7.125000 0.000000 0.000000 
6.642596 17.554938 -8.676898 -1.684490 -16.778726 10.321994 -12.097354 -3.567143 -17.703864 1.241375 10.100217 27.319500 -2.577498 14.043129 -6.479868 0.143900 -2.444300 -6.735200 14.484869 7.228495 -19.082932 -2.597826 -11.779219 32.925884 2.259046 -10.622642 -9.425630 -0.052800 -1.482400 4.077300 2.237574 -1.059759 -3.232239 5.059490 -0.649122 -2.226541 11.375027 -19.711557 3.789379 6.004000 -9.808000 7.265000 -84.442828 -2.766611 61.768969 54.323888 -56.897745 -25.502195 -1.693761 1.601568 -37.818624 -7.125000 0.000000 0.000000 77.480033 4.365166 53.868778 -29.899544 43.992267 -10.267649 -1.151879 -0.742504 0.079234 7.125000 0.000000 0.000000 
6.640790 17.555139 -8.673887 -1.686046 -16.770557 10.339401 -12.091880 -3.593459 -17.693546 1.239180 10.097220 27.309282 -2.585141 14.077043 -6.506306 0.142200 -2.430600 -6.697400 14.481855 7.232247 -19.069512 -2.596150 -11.778200 32.924757 2.233889 -10.546592 -9.464921 -0.060000 -1.580500 4.347600 2.235670 -1.060333 -3.230716 5.029256 -0.648522 -2.234001 11.422914 -19.679437 3.571803 6.050500 -9.799000 7.116500 -84.435263 -2.713197 61.729084 54.313022 -56.899464 -25.501556 -1.696066 1.601349 -37.823705 -7.125000 0.000000 0.000000 77.570303 4.400192 53.771538 -29.722304 43.862797 -10.178250 -1.157607 -0.736680 0.209529 7.125000 0.000000 0.000000 
6.638080 17.555139 -8.671378 -1.698232 -16.800386 10.360317 -12.074374 -3.583306 -17.695195 1.237616 10.093500 27.297746 -2.590139 14.097127 -6.501519 0.141300 -2.422900 -6.675900 14.500739 7.246507 -19.080505 -2.595063 -11.776884 32.919384 2.236342 -10.553239 -9.448933 -0.057800 -1.551700 4.268300 2.245626 -1.055561 -3.235455 5.066313 -0.645589 -2.218230 11.380770 -19.687417 3.645272 6.028500 -9.803400 7.161500 -84.462314 -2.679640 61.648548 54.310117 -56.901453 -25.505162 -1.698135 1.601832 -37.855027 -7.125000 0.000000 0.000000 77.603125 4.391342 53.726971 -29.644221 43.803960 -10.137953 -1.157820 -0.736781 0.215312 7.125000 0.000000 0.000000 
6.635671 17.555139 -8.668367 -1.697190 -16.769656 10.361332 -12.065798 -3.604447 -17.678288 1.236600 10.091839 27.292554 -2.590057 14.096287 -6.500923 0.141400 -2.423500 -6.677700 14.512874 7.225911 -19.071979 -2.594913 -11.776870 32.919061 2.239331 -10.564745 -9.466876 -0.057200 -1.543700 4.246300 2.249543 -1.067649 -3.236267 5.071296 -0.651414 -2.211490 11.365980 -19.689644 3.629592 6.025800 -9.806800 7.147200 -84.473282 -2.639719 61.596865 54.301550 -56.901378 -25.502770 -1.698762 1.602085 -37.863045 -7.125000 0.000000 0.000000 77.654768 4.394951 53.662686 -29.549964 43.734398 -10.090049 -1.158901 -0.736106 0.256905 7.125000 0.000000 0.000000 
6.633161 17.555139 -8.665556 -1.700418 -16.763562 10.370590 -12.055453 -3.612782 -17.671958 1.236427 10.091220 27.290903 -2.592273 14.105803 -6.506081 0.141900 -2.427400 -6.688500 14.524786 7.221193 -19.069408 -2.594235 -11.776101 32.916907 2.238891 -10.564305 -9.475560 -0.057000 -1.540100 4.236300 2.254293 -1.069760 -3.239260 5.083753 -0.651886 -2.206323 11.345287 -19.690399 3.631751 6.020300 -9.809700 7.142300 -84.490119 -2.594069 61.539924 54.298851 -56.903104 -25.503231 -1.698226 1.602788 -37.870710 -7.125000 0.000000 0.000000 77.698181 4.395266 53.615805 -29.474806 43.678783 -10.051456 -1.159017 -0.736668 0.274687 7.125000 0.000000 0.000000 
6.630552 17.555139 -8.662746 -1.704620 -16.757131 10.377907 -12.044147 -3.616362 -17.664302 1.235947 10.090071 27.287585 -2.593844 14.111746 -6.508910 0.143400 -2.440000 -6.723400 14.538631 7.217553 -19.064533 -2.593841 -11.775874 32.916140 2.238300 -10.563758 -9.486687 -0.056800 -1.537400 4.228900 2.259830 -1.070692 -3.242974 5.101027 -0.651670 -2.202406 11.318476 -19.691753 3.653516 6.011300 -9.813000 7.148200 -84.511943 -2.543405 61.485063 54.301468 -56.906705 -25.506140 -1.696882 1.603752 -37.872418 -7.125000 0.000000 0.000000 77.732144 4.390388 53.583292 -29.420688 43.638941 -10.023498 -1.158465 -0.738048 0.276436 7.125000 0.000000 0.000000 
6.627942 17.555139 -8.659936 -1.707119 -16.748955 10.383653 -12.035089 -3.618026 -17.656525 1.235614 10.089148 27.285220 -2.594499 14.114280 -6.514722 0.145300 -2.456700 -6.769700 14.550187 7.214167 -19.057516 -2.593694 -11.776005 32.916818 2.236296 -10.559087 -9.502343 -0.057100 -1.542500 4.242900 2.264032 -1.069235 -3.246524 5.115584 -0.650281 -2.198976 11.294143 -19.693538 3.674731 6.003100 -9.816500 7.153200 -84.530737 -2.488053 61.436015 54.315630 -56.914019 -25.516167 -1.694990 1.604482 -37.864739 -7.125000 0.000000 0.000000 77.764593 4.384999 53.558054 -29.381459 43.610277 -10.002505 -1.157177 -0.739900 0.274519 7.125000 0.000000 0.000000 
6.625232 17.555139 -8.657125 -1.711282 -16.739065 10.388719 -12.024696 -3.616342 -17.648947 1.235308 10.088481 27.283532 -2.594071 14.112276 -6.521709 0.147500 -2.474900 -6.820000 14.563790 7.210259 -19.049495 -2.593658 -11.776394 32.918272 2.234646 -10.555977 -9.519547 -0.057500 -1.547600 4.256900 2.268109 -1.067151 -3.249568 5.129791 -0.648773 -2.192491 11.267801 -19.695065 3.707895 5.992800 -9.819500 7.165200 -84.546104 -2.428654 61.386384 54.349855 -56.928201 -25.540851 -1.693053 1.605039 -37.850214 -7.125000 0.000000 0.000000 77.793211 4.380204 53.542401 -29.354692 43.591230 -9.988013 -1.156154 -0.741501 0.273405 7.125000 0.000000 0.000000 
6.622522 17.555039 -8.654315 -1.716323 -16.726020 10.394181 -12.013204 -3.614416 -17.642206 1.235163 10.087898 27.282496 -2.592933 14.106751 -6.529333 0.149800 -2.494000 -6.872900 14.578097 7.205468 -19.040736 -2.593752 -11.776903 32.920428 2.231786 -10.549301 -9.540217 -0.058400 -1.559900 4.290900 2.271291 -1.063705 -3.250877 5.139840 -0.646817 -2.181191 11.246120 -19.695351 3.733537 5.984700 -9.821700 7.172000 -84.559339 -2.352710 61.319050 54.444306 -56.963777 -25.610527 -1.692405 1.604356 -37.805278 -7.125000 0.000000 0.000000 77.821630 4.378574 53.531081 -29.337383 43.579598 -9.978307 -1.155364 -0.742702 0.276308 7.125000 0.000000 0.000000 
6.619812 17.554938 -8.651304 -1.721042 -16.708335 10.399728 -12.002011 -3.613707 -17.636095 1.235195 10.087578 27.282403 -2.590906 14.097913 -6.536232 0.151200 -2.506000 -6.906400 14.592458 7.198495 -19.032825 -2.593870 -11.777565 32.922635 2.231842 -10.551993 -9.560992 -0.058800 -1.565300 4.305700 2.272243 -1.056547 -3.251778 5.143198 -0.643281 -2.167612 11.225204 -19.701941 3.764078 5.973300 -9.826000 7.184200 -84.558747 -2.295259 61.276273 54.526351 -56.993845 -25.671039 -1.692487 1.603021 -37.773585 -7.125000 0.000000 0.000000 77.854048 4.380308 53.516856 -29.325405 43.572358 -9.971830 -1.154937 -0.743594 0.285285 7.125000 0.000000 0.000000 
6.617102 17.554838 -8.648293 -1.726234 -16.684419 10.404913 -11.990051 -3.615237 -17.630189 1.235313 10.087605 27.283200 -2.588072 14.085246 -6.541412 0.152000 -2.512600 -6.924500 14.608112 7.186628 -19.025620 -2.594064 -11.778071 32.924517 2.233351 -10.559131 -9.581219 -0.058900 -1.566300 4.308500 2.272709 -1.050272 -3.252594 5.144185 -0.640285 -2.151651 11.203841 -19.709856 3.801040 5.960400 -9.830400 7.200900 -84.553809 -2.248946 61.243734 54.601005 -57.020972 -25.726444 -1.692938 1.601659 -37.750086 -7.125000 0.000000 0.000000 77.885088 4.381809 53.507796 -29.321048 43.570686 -9.968534 -1.154176 -0.744440 0.297382 7.125000 0.000000 0.000000 
